REM DIRINDEX 1\2,1\3,1\4,1\6,1\5\7,1\5\8
REM DIRNAME folder01,folder02,folder03,folder04,folder05,folder06,folder07,folder08
TITLE ""
FILE "DB4500_5th_5C_19.mp3" MP3
  TRACK 01 AUDIO
    TITLE "2:cjc114_3859"
    INDEX 01 00:00:00
  TRACK 02 AUDIO
    TITLE "0:"
    INDEX 01 00:01:17
  TRACK 03 AUDIO
    TITLE "3:cjc114_3860"
    INDEX 01 00:01:32
  TRACK 04 AUDIO
    TITLE "0:"
    INDEX 01 00:02:65
  TRACK 05 AUDIO
    TITLE "4:cjc114_3861"
    INDEX 01 00:03:06
  TRACK 06 AUDIO
    TITLE "0:"
    INDEX 01 00:07:21
  TRACK 07 AUDIO
    TITLE "2:cjc114_3862"
    INDEX 01 00:07:60
  TRACK 08 AUDIO
    TITLE "0:"
    INDEX 01 00:09:04
  TRACK 09 AUDIO
    TITLE "3:cjc114_3863"
    INDEX 01 00:09:18
  TRACK 10 AUDIO
    TITLE "0:"
    INDEX 01 00:10:37
  TRACK 11 AUDIO
    TITLE "4:cjc114_3864"
    INDEX 01 00:10:53
  TRACK 12 AUDIO
    TITLE "0:"
    INDEX 01 00:14:07
  TRACK 13 AUDIO
    TITLE "2:cjc114_3865"
    INDEX 01 00:14:45
  TRACK 14 AUDIO
    TITLE "0:"
    INDEX 01 00:15:54
  TRACK 15 AUDIO
    TITLE "3:cjc114_3866"
    INDEX 01 00:15:70
  TRACK 16 AUDIO
    TITLE "0:"
    INDEX 01 00:17:20
  TRACK 17 AUDIO
    TITLE "4:cjc114_3867"
    INDEX 01 00:17:35
  TRACK 18 AUDIO
    TITLE "0:"
    INDEX 01 00:19:26
  TRACK 19 AUDIO
    TITLE "2:cjc114_3868"
    INDEX 01 00:19:63
  TRACK 20 AUDIO
    TITLE "0:"
    INDEX 01 00:20:65
  TRACK 21 AUDIO
    TITLE "3:cjc114_3869"
    INDEX 01 00:21:04
  TRACK 22 AUDIO
    TITLE "0:"
    INDEX 01 00:22:27
  TRACK 23 AUDIO
    TITLE "4:cjc114_3870"
    INDEX 01 00:22:40
  TRACK 24 AUDIO
    TITLE "0:"
    INDEX 01 00:25:23
  TRACK 25 AUDIO
    TITLE "2:cjc114_3871"
    INDEX 01 00:25:58
  TRACK 26 AUDIO
    TITLE "0:"
    INDEX 01 00:26:62
  TRACK 27 AUDIO
    TITLE "3:cjc114_3872"
    INDEX 01 00:27:00
  TRACK 28 AUDIO
    TITLE "0:"
    INDEX 01 00:28:21
  TRACK 29 AUDIO
    TITLE "4:cjc114_3873"
    INDEX 01 00:28:35
  TRACK 30 AUDIO
    TITLE "0:"
    INDEX 01 00:32:00
  TRACK 31 AUDIO
    TITLE "2:cjc114_3874"
    INDEX 01 00:32:35
  TRACK 32 AUDIO
    TITLE "0:"
    INDEX 01 00:33:56
  TRACK 33 AUDIO
    TITLE "3:cjc114_3875"
    INDEX 01 00:33:68
  TRACK 34 AUDIO
    TITLE "0:"
    INDEX 01 00:35:02
  TRACK 35 AUDIO
    TITLE "4:cjc114_3876"
    INDEX 01 00:35:17
  TRACK 36 AUDIO
    TITLE "0:"
    INDEX 01 00:38:12
  TRACK 37 AUDIO
    TITLE "2:cjc114_3877"
    INDEX 01 00:38:51
  TRACK 38 AUDIO
    TITLE "0:"
    INDEX 01 00:39:62
  TRACK 39 AUDIO
    TITLE "3:cjc114_3878"
    INDEX 01 00:40:03
  TRACK 40 AUDIO
    TITLE "0:"
    INDEX 01 00:41:04
  TRACK 41 AUDIO
    TITLE "4:cjc114_3879"
    INDEX 01 00:41:18
  TRACK 42 AUDIO
    TITLE "0:"
    INDEX 01 00:45:30
  TRACK 43 AUDIO
    TITLE "2:cjc114_3880"
    INDEX 01 00:45:67
  TRACK 44 AUDIO
    TITLE "0:"
    INDEX 01 00:46:70
  TRACK 45 AUDIO
    TITLE "3:cjc114_3881"
    INDEX 01 00:47:11
  TRACK 46 AUDIO
    TITLE "0:"
    INDEX 01 00:48:26
  TRACK 47 AUDIO
    TITLE "4:cjc114_3882"
    INDEX 01 00:48:40
  TRACK 48 AUDIO
    TITLE "0:"
    INDEX 01 00:51:67
  TRACK 49 AUDIO
    TITLE "2:cjc114_3883"
    INDEX 01 00:52:30
  TRACK 50 AUDIO
    TITLE "0:"
    INDEX 01 00:53:27
  TRACK 51 AUDIO
    TITLE "3:cjc114_3884"
    INDEX 01 00:53:43
  TRACK 52 AUDIO
    TITLE "0:"
    INDEX 01 00:54:60
  TRACK 53 AUDIO
    TITLE "4:cjc114_3885"
    INDEX 01 00:54:74
  TRACK 54 AUDIO
    TITLE "0:"
    INDEX 01 00:58:07
  TRACK 55 AUDIO
    TITLE "2:cjc114_3886"
    INDEX 01 00:58:42
  TRACK 56 AUDIO
    TITLE "0:"
    INDEX 01 00:59:47
  TRACK 57 AUDIO
    TITLE "3:cjc114_3887"
    INDEX 01 00:59:61
  TRACK 58 AUDIO
    TITLE "0:"
    INDEX 01 01:01:27
  TRACK 59 AUDIO
    TITLE "4:cjc114_3888"
    INDEX 01 01:01:40
  TRACK 60 AUDIO
    TITLE "0:"
    INDEX 01 01:03:55
  TRACK 61 AUDIO
    TITLE "2:cjc114_3889"
    INDEX 01 01:04:17
  TRACK 62 AUDIO
    TITLE "0:"
    INDEX 01 01:05:48
  TRACK 63 AUDIO
    TITLE "3:cjc114_3890"
    INDEX 01 01:05:62
  TRACK 64 AUDIO
    TITLE "0:"
    INDEX 01 01:07:08
  TRACK 65 AUDIO
    TITLE "4:cjc114_3891"
    INDEX 01 01:07:21
  TRACK 66 AUDIO
    TITLE "0:"
    INDEX 01 01:11:43
